<?xml version="1.0" standalone="no"?>
<!DOCTYPE svg PUBLIC "-//W3C//DTD SVG 20010904//EN"
 "http://www.w3.org/TR/2001/REC-SVG-20010904/DTD/svg10.dtd">
<svg version="1.0" xmlns="http://www.w3.org/2000/svg"
 width="170.000000pt" height="166.000000pt" viewBox="0 0 170.000000 166.000000"
 preserveAspectRatio="xMidYMid meet">

<g transform="translate(0.000000,166.000000) scale(0.100000,-0.100000)"
fill="#000000" stroke="none">
<path d="M676 1495 c-50 -18 -56 -24 -111 -120 -80 -139 -451 -887 -469 -947
-21 -69 -16 -100 27 -150 l32 -38 200 -2 c238 -3 258 2 308 90 47 83 49 82
-193 82 -115 0 -210 3 -210 7 0 10 341 675 407 793 35 64 68 110 83 118 37 19
136 11 159 -14 25 -26 139 -240 320 -602 l151 -302 -129 0 -130 0 -148 290
c-81 159 -152 290 -156 290 -13 0 -77 -145 -77 -174 0 -27 194 -425 241 -493
59 -86 96 -95 330 -87 l177 7 31 41 c44 57 47 79 21 159 -36 114 -462 944
-523 1020 -13 17 -38 32 -62 37 -61 14 -234 11 -279 -5z"/>
</g>
</svg>
