<?xml version="1.0" standalone="no"?>
<!DOCTYPE svg PUBLIC "-//W3C//DTD SVG 20010904//EN"
 "http://www.w3.org/TR/2001/REC-SVG-20010904/DTD/svg10.dtd">
<svg version="1.0" xmlns="http://www.w3.org/2000/svg"
 width="727.000000pt" height="264.000000pt" viewBox="0 0 727.000000 264.000000"
 preserveAspectRatio="xMidYMid meet">

<g transform="translate(0.000000,264.000000) scale(0.100000,-0.100000)"
fill="#000000" stroke="none">
<path d="M800 1752 c-32 -16 -54 -55 -228 -398 -218 -428 -225 -448 -174 -505
l30 -34 147 -3 c172 -4 195 2 230 63 29 49 31 67 8 64 -10 -1 -84 -1 -165 0
l-148 1 167 328 c91 180 175 337 186 350 16 17 31 22 72 22 41 0 56 -5 72 -22
11 -13 95 -170 186 -350 l165 -328 -99 0 -99 0 -110 220 c-61 121 -112 220
-115 220 -10 0 -66 -123 -63 -138 2 -10 47 -103 100 -208 120 -237 106 -227
314 -222 l146 3 29 33 c54 61 51 70 -167 498 -138 269 -205 390 -222 402 -40
26 -215 29 -262 4z"/>
<path d="M5535 1764 c-11 -2 -45 -9 -75 -15 -181 -37 -363 -211 -436 -416 -31
-90 -31 -103 4 -103 l28 0 0 -87 c0 -69 5 -99 23 -140 30 -68 101 -134 177
-164 52 -20 75 -23 189 -23 109 1 146 5 228 28 158 42 147 31 185 198 18 78
35 153 38 166 6 19 3 22 -26 22 -31 0 -32 1 -26 33 4 17 10 47 13 65 l6 32
-221 0 -221 0 -10 -37 c-24 -98 -24 -93 10 -93 l31 0 -6 -45 -7 -45 65 0 c36
0 67 -3 69 -7 2 -5 -1 -28 -7 -53 l-11 -45 -68 2 c-104 2 -146 40 -151 135 -3
51 -4 53 -33 56 -31 3 -31 4 -21 40 23 87 109 197 184 235 45 23 139 39 188
32 62 -10 102 -37 116 -79 11 -35 13 -36 59 -36 l47 0 27 118 c15 64 27 122
27 128 0 13 -92 55 -167 77 -54 16 -194 29 -228 21z"/>
<path d="M6450 1763 c-19 -2 -64 -13 -100 -25 -205 -65 -339 -229 -394 -480
-6 -26 -4 -28 22 -28 l29 0 5 -92 c10 -178 81 -273 233 -313 196 -51 418 26
553 191 50 61 116 189 106 205 -3 6 -17 9 -31 6 -21 -4 -24 -2 -19 17 45 162
27 311 -49 411 -34 44 -130 92 -210 105 -60 10 -79 10 -145 3z m55 -233 c42
-16 59 -70 51 -165 -3 -44 -8 -92 -12 -107 -6 -25 -4 -28 20 -28 17 0 26 -5
26 -15 0 -46 -89 -159 -134 -171 -75 -18 -116 20 -125 118 -6 60 -7 63 -35 66
-27 3 -28 5 -22 43 17 105 89 228 150 255 38 16 47 17 81 4z"/>
<path d="M1775 1738 c-4 -12 -115 -489 -115 -495 0 -2 11 -3 25 -3 14 0 25 -4
25 -9 0 -8 -38 -180 -73 -329 l-15 -62 142 0 143 0 43 190 c42 181 53 220 63
210 3 -3 31 -93 64 -200 l59 -195 142 -3 c78 -1 142 0 142 3 0 2 18 82 40 177
22 95 42 183 45 196 5 18 1 22 -20 22 -14 0 -25 6 -25 13 0 6 25 117 55 246
30 129 55 238 55 243 0 5 -64 7 -142 6 l-142 -3 -33 -140 c-18 -77 -36 -147
-39 -155 -7 -17 -12 -4 -69 183 l-36 117 -165 0 c-123 0 -166 -3 -169 -12z"/>
<path d="M2651 1512 c-30 -130 -57 -245 -59 -254 -3 -14 2 -18 21 -18 14 0 28
-3 30 -7 3 -5 -15 -91 -39 -193 -24 -102 -44 -188 -44 -193 0 -4 69 -6 152 -5
l152 3 43 180 c23 99 42 186 43 193 0 6 -11 12 -25 12 -18 0 -25 5 -25 18 0
10 25 125 55 256 30 130 55 239 55 241 0 3 -69 5 -152 5 l-153 0 -54 -238z"/>
<path d="M3064 1723 c-3 -16 -15 -62 -25 -105 -10 -42 -19 -81 -19 -87 0 -7
41 -11 120 -11 66 0 120 -2 120 -4 0 -6 -50 -218 -56 -238 -4 -14 1 -18 20
-18 18 0 26 -5 26 -18 0 -15 -73 -340 -86 -384 -5 -17 7 -18 150 -18 86 0 156
2 156 4 0 7 80 369 86 389 4 13 -1 17 -20 17 -14 0 -26 3 -26 8 -1 4 12 64 27
134 l28 128 122 0 c119 0 123 1 128 23 28 122 45 199 45 202 0 3 -178 5 -395
5 l-395 0 -6 -27z"/>
<path d="M3915 1738 c-2 -7 -27 -112 -55 -233 -27 -121 -52 -230 -55 -242 -5
-20 -1 -23 25 -23 16 0 30 -2 30 -5 0 -2 -18 -82 -40 -177 -22 -95 -42 -183
-45 -195 l-5 -23 153 0 153 0 42 188 c23 103 42 190 42 195 0 4 -11 7 -25 7
-15 0 -25 6 -25 14 0 8 25 123 55 254 30 132 55 242 55 246 0 3 -68 6 -150 6
-112 0 -152 -3 -155 -12z"/>
<path d="M4376 1742 c-5 -8 -116 -482 -116 -495 0 -4 11 -7 23 -7 13 0 26 -2
29 -5 3 -3 -15 -89 -39 -191 -23 -103 -43 -191 -43 -195 0 -5 146 -9 325 -9
l325 0 5 23 c3 12 14 60 25 107 11 47 20 88 20 93 0 4 -76 7 -170 7 -192 0
-180 -6 -157 85 l13 50 162 3 c97 1 162 6 162 12 0 6 -11 10 -24 10 -14 0 -27
3 -29 8 -2 4 6 50 18 102 l21 95 -159 3 -159 3 6 31 c3 17 6 34 6 39 0 5 80 9
178 9 l178 0 25 115 26 115 -323 0 c-178 0 -325 -4 -328 -8z"/>
</g>
</svg>
